Austin Powers International Man of Mystery

Austin Powers The Spy Who Shagged Me

Austin Powers in Goldmember 
http://www.imdb.com/title/tt0118655/ 
http://www.imdb.com/title/tt0145660/ 
http://www.imdb.com/title/tt0295178/


Source  :

Austin.Powers.in.Goldmember.2002.720p.BluRay.DTS.x264-DON

Austin.Powers.The.Spy.Who.Shagged.Me.1999.720p.BluRay.DTS.x264-DON

Austin.Powers.International.Man.of.Mystery.1997.720p.BluRay.x264-DON


Info Austin.Powers.International.Man.of.Mystery-OOO:

ID                               : 1
Format                           : AVC
Format/Info                      : Advanced Video Codec
Format profile                   : Baseline@L2.0
Format settings, CABAC           : No
Format settings, ReFrames        : 3 frames
Codec ID                         : avc1
Codec ID/Info                    : Advanced Video Coding
Duration                         : 1h 29mn
Bit rate mode                    : Variable
Bit rate                         : 400 Kbps
Width                            : 480 pixels
Height                           : 208 pixels
Display aspect ratio             : 2.35:1
Frame rate mode                  : Variable
Frame rate                       : 23.976 fps
Minimum frame rate               : 23.810 fps
Maximum frame rate               : 24.390 fps
Color space                      : YUV
Chroma subsampling               : 4:2:0
Bit depth                        : 8 bits
Scan type                        : Progressive
Bits/(Pixel*Frame)               : 0.167
Stream size                      : 256 MiB (75%)
Writing library                  : x264 core 79

ID                               : 2
Format                           : AAC
Format/Info                      : Advanced Audio Codec
Format version                   : Version 4
Format profile                   : LC
Format settings, SBR             : No
Codec ID                         : 40
Duration                         : 1h 29mn
Bit rate mode                    : Variable
Bit rate                         : 128 Kbps
Maximum bit rate                 : 207 Kbps
Channel(s)                       : 2 channels Dolby Pro Logic II
Channel positions                : Front: L R
Sampling rate                    : 48.0 KHz
Stream size                      : 82.0 MiB (24%)
Language                         : English


Screens : 
http://img695.imageshack.us/img695/4555/austinpowersingoldmembej.jpg 
http://img80.imageshack.us/img80/2809/austinpowersinternation.jpg 
http://img408.imageshack.us/img408/8803/austinpowersthespywhosh.jpg


PLEASE LET THE TORRENT SEED AND SHARE IT WITH ALL YOU KNOW!

Let me know what I can do to be your trusted source of Handheld videos. 
http://thepiratebay.org/user/on.off.on/ -OOO